<?xml version="1.0" encoding="iso-8859-1"?>
<!-- Uploaded to: SVG Repo, www.svgrepo.com, Generator: SVG Repo Mixer Tools -->
<svg fill="#000000" height="800px" width="800px" version="1.1" id="Layer_1" xmlns="http://www.w3.org/2000/svg" xmlns:xlink="http://www.w3.org/1999/xlink" 
	 viewBox="0 0 511.999 511.999" xml:space="preserve">
<g>
	<g>
		<path d="M508.331,78.804C508.331,35.352,472.98,0,429.527,0c-43.453,0-78.805,35.352-78.805,78.804
			c0,7.382,1.042,14.521,2.949,21.302l-211.11,112.129c-14.467-17.05-36.029-27.901-60.089-27.901
			c-43.453,0-78.804,35.352-78.804,78.804c0,43.454,35.352,78.805,78.804,78.805c22.353,0,42.545-9.37,56.901-24.37l146.879,89.78
			c-2.821,8.101-4.374,16.791-4.374,25.841c0,43.453,35.352,78.804,78.804,78.804c43.453,0,78.804-35.352,78.804-78.804
			c0-32.396-19.655-60.278-47.662-72.377l39.484-203.254C473.94,156.61,508.331,121.66,508.331,78.804z M82.472,308.404
			c-24.959,0-45.265-20.306-45.265-45.266c0-24.959,20.306-45.265,45.265-45.265c24.96,0,45.266,20.306,45.266,45.265
			C127.738,288.098,107.432,308.404,82.472,308.404z M405.949,433.195c0,24.959-20.306,45.265-45.265,45.265
			c-24.959,0-45.265-20.306-45.265-45.265s20.306-45.265,45.265-45.265C385.643,387.93,405.949,408.236,405.949,433.195z
			 M358.901,354.437c-21.64,0.484-41.145,9.725-55.117,24.324l-146.88-89.782c2.821-8.101,4.374-16.791,4.374-25.841
			c0-7.382-1.042-14.52-2.949-21.301l211.11-112.128c7.818,9.216,17.706,16.618,28.947,21.474L358.901,354.437z M384.261,78.804
			c0-24.959,20.307-45.265,45.266-45.265c24.959,0,45.265,20.306,45.265,45.265c0,24.96-20.306,45.266-45.265,45.266
			C404.568,124.07,384.261,103.764,384.261,78.804z"/>
	</g>
</g>
</svg>